<?xml version="1.0" standalone="no"?>
<!DOCTYPE svg PUBLIC "-//W3C//DTD SVG 1.1//EN" "http://www.w3.org/Graphics/SVG/1.1/DTD/svg11.dtd">
<svg xmlns="http://www.w3.org/2000/svg">
<metadata>Generated by Fontastic.me</metadata>
<defs>
<font id="20dishes" horiz-adv-x="512">
<font-face font-family="20dishes" units-per-em="512" ascent="480" descent="-32"/>
<missing-glyph horiz-adv-x="512" />

<glyph glyph-name="big-arrow-left" unicode="&#97;" d="M117 240c-9 9-9 23 0 32l199 199c9 9 24 9 32 0l31-30c9-9 9-23 0-32l-153-153 10-10 143-143c9-9 9-23 0-32l-31-30c-8-9-23-9-32 0l-150 150z"/>
<glyph glyph-name="big-arrow-right" unicode="&#98;" d="M403 240c9 9 9 23 0 32l-199 199c-9 9-24 9-32 0l-31-30c-9-9-9-23 0-32l153-153-10-10-143-143c-9-9-9-23 0-32l31-30c8-9 23-9 32 0l150 150z"/>
<glyph glyph-name="calendar" unicode="&#99;" d="M125 390l8 0c11 0 21 10 21 21l0 75c0 12-10 21-21 21l-8 0c-11 0-21-9-21-21l0-76c2-12 10-20 21-20z m259 0l8 0c11 0 21 10 21 21l0 75c0 12-10 21-21 21l-8 0c-11 0-21-9-21-21l0-76c0-10 10-20 21-20z m94 76l-51 0 0-61c0-21-16-32-37-32l-6 0c-21 0-37 16-37 37l0 56-177 0 0-56c0-21-16-37-37-37l-8 0c-21 0-37 16-37 37l0 56-54 0c-18 0-32-15-32-32l0-396c0-17 14-32 32-32l446 0c18 0 32 15 32 32l0 396c0 17-14 32-34 32z m0-429l-444 0 0 299 446 0-2-299c2 0 2 0 0 0z m-204 200l59 0c1 0 5 1 5 5l0 51c0 1-2 5-5 5l-59 0c-2 0-5-2-5-5l0-53c0-2 1-3 5-3z m96 0l59 0c1 0 5 1 5 5l0 51c0 1-2 5-5 5l-59 0c-2 0-5-2-5-5l0-53c0-2 1-3 5-3z m-288-85l59 0c1 0 5 2 5 5l0 51c0 2-2 5-5 5l-59 0c-2 0-5-2-5-5l0-51c0-2 1-5 5-5z m96 0l59 0c1 0 5 2 5 5l0 51c0 2-2 5-5 5l-59 0c-2 0-5-2-5-5l0-51c0-2 1-5 5-5z m96 0l59 0c1 0 5 2 5 5l0 51c0 2-2 5-5 5l-59 0c-2 0-5-2-5-5l0-51c0-2 1-5 5-5z m96 0l59 0c1 0 5 2 5 5l0 51c0 2-2 5-5 5l-59 0c-2 0-5-2-5-5l0-51c0-2 1-5 5-5z m-231-24l-57 0c-2 0-5-2-5-5l0-51c0-2 1-5 5-5l59 0c1 0 5 2 5 5l0 51c-2 3-4 5-7 5z m96 0l-59 0c-2 0-5-2-5-5l0-51c0-2 2-5 5-5l59 0c2 0 5 2 5 5l0 51c0 3-2 5-5 5z m96 0l-59 0c-2 0-5-2-5-5l0-51c0-2 2-5 5-5l59 0c2 0 5 2 5 5l0 51c0 3-2 5-5 5z m96 0l-59 0c-2 0-5-2-5-5l0-51c0-2 2-5 5-5l59 0c2 0 5 2 5 5l0 51c0 3-2 5-5 5z"/>
<glyph glyph-name="coin" unicode="&#100;" d="M149 219c14 0 28 1 41 3l0 145c-13 2-27 3-41 3-82 0-149-31-149-68l0-15c0-37 67-68 149-68z m0-75c14 0 28 1 41 2l0 43c-13-2-27-3-41-3-72 0-132 23-146 54-2-4-3-9-3-14l0-14c0-38 67-68 149-68z m41-34l0 3c-13-2-27-2-41-2-72 0-132 23-146 53-2-4-3-9-3-13l0-15c0-38 67-68 149-68 16 0 32 1 47 4-4 7-6 15-6 23z m173 375c-82 0-149-31-149-68l0-15c0-37 67-68 149-68 82 0 149 31 149 68l0 15c0 37-67 68-149 68z m0-184c-72 0-131 23-145 54-2-4-3-9-3-14l0-15c0-37 66-67 148-67 82 0 149 30 149 67l0 15c0 5-1 10-3 14-14-31-74-54-146-54z m0-76c-72 0-131 23-145 54-2-4-3-9-3-14l0-14c0-38 66-68 148-68 82 0 149 30 149 68l0 14c0 5-1 10-3 14-14-31-74-54-146-54z m0-79c-72 0-131 23-145 54-2-5-3-10-3-14l0-15c0-37 66-68 148-68 82 0 149 31 149 68l0 15c0 4-1 9-3 14-14-31-74-54-146-54z m0-76c-72 0-131 23-145 54-2-5-3-9-3-14l0-15c0-37 66-67 148-67 82 0 149 30 149 67l0 15c0 5-1 9-3 14-14-31-74-54-146-54z"/>
<glyph glyph-name="facebook-circle" unicode="&#101;" d="M255 512c-141 0-255-114-255-255 0-140 114-254 255-254 140 0 254 114 254 254 0 141-114 255-254 255z m67-254l-44 0c0-70 0-157 0-157l-65 0c0 0 0 86 0 157l-31 0 0 56 31 0 0 36c0 26 12 66 66 66l48 0 0-54c0 0-29 0-35 0-6 0-14-3-14-15l0-33 50 0z"/>
<glyph glyph-name="gear-full" unicode="&#102;" d="M406 305l-2 1-7 18 1 2c23 52 21 54 17 57l-30 30c-2 2-4 3-6 3-2 0-7 0-52-21l-2-1-19 8 0 2c-22 52-24 52-29 52l-44 0c-5 0-7 0-27-53l-1-1-18-8-2 1c-31 13-49 19-54 19-1 0-4-1-5-2l-31-30c-4-4-5-5 19-57l1-1-8-19-1 0c-55-21-55-23-55-29l0-42c0-6 0-8 55-27l2-1 7-18-1-2c-23-52-21-53-17-57l30-30c2-2 4-3 6-3 1 0 7 0 52 21l2 1 19-8 0-2c22-52 24-52 29-52l44 0c5 0 7 0 27 53l1 2 18 7 2-1c31-13 49-19 53-19 2 0 5 1 6 2l31 30c4 4 5 5-19 57l-1 1 8 18 1 1c55 21 55 23 55 29l0 42c0 6 0 8-55 27z m-150-118c-39 0-70 31-70 69 0 38 31 69 70 69 39 0 70-31 70-69 0-38-31-69-70-69z"/>
<glyph glyph-name="home" unicode="&#103;" d="M428 261c-9 0-15-7-15-15l0-200-105 0 0 82c0 7-6 14-14 14l-76 0c-8 0-15-7-15-14l0-82-104 0 0 193c0 8-7 15-15 15-8 0-14-7-14-15l0-208c0-8 6-14 14-14l134 0c8 0 14 7 14 14l0 82 47 0 0-82c0-8 7-14 15-14l134 0c7 0 14 7 14 14l0 215c0 8-7 15-14 15z m80-12l-117 116 0 80c0 8-6 14-15 14-7 0-14-6-14-14l0-51-96 96c-3 3-6 5-10 5-4 0-7-2-10-5l-242-239c-5-6-6-15 0-20 6-6 15-6 21 0l231 229 231-231c2-3 6-4 10-4 4 0 8 1 11 4 5 5 6 15 0 20z"/>
<glyph glyph-name="image-alt" unicode="&#104;" d="M480 444l-448 0c-18 0-32-14-32-32l0-312c0-18 14-32 32-32l448 0c18 0 32 14 32 32l0 312c0 18-14 32-32 32z m0-344l-448 0 0 312 448 0z m-379 35c3-3 7-4 11-4 4 0 8 1 11 4l88 86 54-26c7-3 15-1 20 5l82 107 52-75c5-7 14-9 22-5 7 5 9 15 4 22l-64 94c-2 4-7 7-13 7-5 0-10-2-13-6l-88-115-52 25c-6 3-13 2-18-3l-96-93c-7-7-7-16 0-23z m27 121c35 0 64 28 64 63 0 34-29 62-64 62-35 0-64-28-64-62 0-35 29-63 64-63z m0 94c18 0 32-14 32-31 0-18-14-32-32-32-18 0-32 14-32 32 0 17 14 31 32 31z"/>
<glyph glyph-name="instagram-circle" unicode="&#105;" d="M256 204c29 0 52 23 52 52 0 11-4 21-10 29-9 13-24 22-41 22-18 0-33-9-42-22-6-8-10-18-10-29 0-29 23-52 51-52z m112 114l0 49-6 0-43 0 0-49z m-112 193c-140 0-255-115-255-255 0-141 115-256 255-256 141 0 256 115 256 256 0 140-115 255-256 255z m146-226l0-119c0-31-25-56-56-56l-179 0c-31 0-56 25-56 56l0 179c0 31 25 56 56 56l179 0c31 0 56-25 56-56z m-66-29c0-44-36-80-80-80-43 0-79 36-79 80 0 10 2 20 6 29l-43 0 0-119c0-15 12-27 27-27l179 0c15 0 28 12 28 27l0 119-44 0c4-9 6-19 6-29z"/>
<glyph glyph-name="link-alt" unicode="&#106;" d="M472 280l-96-95c-53-52-139-52-192 0-8 9-15 18-21 27l45 44c2 2 5 3 7 5 3-11 9-20 17-29 26-26 70-26 96 0l96 95c27 26 27 68 0 94-26 26-69 26-96 0l-34-34c-28 11-58 14-87 10l73 71c53 52 139 52 192 0 53-52 53-136 0-188z m-254-155l-34-34c-27-26-70-26-96 0-27 26-27 68 0 94l96 95c26 25 69 25 96 0 8-9 14-18 17-29 2 2 5 3 7 5l45 44c-6 9-13 18-21 27-53 52-139 52-192 0l-96-95c-53-52-53-136 0-188 53-52 139-52 192 0l73 71c-29-4-59-1-87 10z"/>
<glyph glyph-name="mail-alt" unicode="&#107;" d="M495 441l-478 0c-9 0-17-7-17-17l0-336c0-10 8-17 17-17l478 0c9 0 17 7 17 17l0 336c0 10-8 17-17 17z m-18-336l-442 0 0 302 442 0 0-302z m-397 220l167-102c3-2 6-2 9-2 3 0 6 0 9 2l167 102c8 5 10 16 5 24-5 8-15 11-23 6l-158-97-158 97c-8 5-18 2-24-6-5-8-2-19 6-24z"/>
<glyph glyph-name="minus" unicode="&#108;" d="M248 264l-116 0 0-16 248 0 0 16z"/>
<glyph glyph-name="note" unicode="&#109;" d="M412 484c32 0 57-26 57-57l0-342c0-31-25-57-57-57l-312 0c-32 0-57 26-57 57l0 342c0 31 25 57 57 57l312 0m0 28l-312 0c-48 0-86-38-86-85l0-342c0-47 38-85 86-85l312 0c48 0 86 38 86 85l0 342c0 47-38 85-86 85z m-284-142l0 28 256 0 0-28z m0-86l0 29 256 0 0-29z m0-85l0 29 256 0 0-29z m0-85l0 28 171 0 0-28z"/>
<glyph glyph-name="notes" unicode="&#110;" d="M448 512l-288 0c-35 0-64-29-64-64l32 0c0 18 14 32 32 32l288 0c18 0 32-14 32-32l0-288c0-18-14-32-32-32l0-32c35 0 64 29 64 64l0 288c0 35-29 64-64 64z m-96-96l-288 0c-35 0-64-29-64-64l0-288c0-35 29-64 64-64l288 0c35 0 64 29 64 64l0 288c0 35-29 64-64 64z m32-352c0-18-14-32-32-32l-288 0c-18 0-32 14-32 32l0 288c0 18 14 32 32 32l288 0c18 0 32-14 32-32z m-288 224l224 0 0 32-224 0z m0-64l224 0 0 32-224 0z m0-64l224 0 0 32-224 0z m0-64l128 0 0 32-128 0z"/>
<glyph glyph-name="pinterest-circle" unicode="&#111;" d="M255 512c-141 0-255-114-255-255 0-104 63-193 152-233 0 18 0 39 5 59 5 20 33 138 33 138 0 0-9 17-9 41 0 37 22 66 50 66 23 0 34-18 34-39 0-23-15-58-23-90-6-27 14-49 41-49 48 0 80 62 80 135 0 56-37 98-106 98-77 0-125-58-125-122 0-22 7-38 17-50 5-6 5-8 3-14-1-5-4-16-5-21-1-6-7-8-12-6-36 15-53 54-53 97 0 73 61 159 182 159 98 0 162-70 162-145 0-100-56-175-138-175-27 0-53 15-62 32 0 0-15-59-18-70-5-20-16-39-26-55 23-7 48-10 73-10 140 0 254 114 254 254 0 141-114 255-254 255z"/>
<glyph glyph-name="play-circle" unicode="&#112;" d="M375 273l-151 99c-4 2-8 4-12 4-10 0-18-9-18-20l0-200c0-11 8-20 18-20 4 0 8 2 12 4l151 99c6 4 9 10 9 17 0 7-3 13-9 17z m-153-99l0 164 126-82z m34 338c-141 0-256-115-256-256 0-141 115-256 256-256 141 0 256 115 256 256 0 141-115 256-256 256z m0-483c-125 0-227 102-227 227 0 125 102 227 227 227 125 0 227-102 227-227 0-125-102-227-227-227z"/>
<glyph glyph-name="plus" unicode="&#113;" d="M380 264l-116 0 0 116-16 0 0-116-116 0 0-16 116 0 0-116 16 0 0 116 116 0z"/>
<glyph glyph-name="print" unicode="&#114;" d="M454 382l-396 0c-32 0-58-27-58-59l0-127c0-32 26-58 58-58l59 0 0-84c0-10 9-19 19-19l240 0c10 0 19 9 19 19l0 84 59 0c32 0 58 26 58 58l0 127c0 32-26 59-58 59z m-396-78c-10 0-19 9-19 20 0 10 8 19 19 19 11 0 19-9 19-19 0-11-9-20-19-20z m318-249l-240 0 0 191 240 0z m-213 54l186 0 0-27-186 0z m0 55l186 0 0-28-186 0z m0 54l131 0 0-27-131 0z m232 179l-19 0 0 51c0 5-4 9-10 9l-220 0c-6 0-10-4-10-9l0-51-20 0 0 51c0 16 14 28 30 28l220 0c16 0 29-13 29-28z"/>
<glyph glyph-name="shop" unicode="&#115;" d="M393 0l-268 0c-26 0-46 21-46 46l-38 179c-15 8-24 22-24 39 0 23 19 43 43 43l392 0c24 0 43-20 43-43 0-14-7-27-18-35l-39-186c0-22-20-43-45-43z m-333 278c-8 0-15-6-15-14 0-7 5-13 11-14 6-2 10-6 11-11l40-190c0-13 8-21 18-21l268 0c9 0 17 8 17 18l41 195c1 4 3 7 7 9 6 3 9 8 9 13 0 9-7 15-15 15z m101-195c0-5-5-10-10-10l-3 0c-5 0-10 5-10 10l0 117c0 5 5 10 10 10l3 0c5 0 10-5 10-10z m72 0c0-5-4-10-10-10l-2 0c-6 0-10 5-10 10l0 117c0 5 4 10 10 10l2 0c6 0 10-5 10-10z m73 0c0-5-5-10-10-10l-3 0c-5 0-10 5-10 10l0 117c0 5 5 10 10 10l3 0c5 0 10-5 10-10z m72 0c0-5-4-10-10-10l-2 0c-6 0-10 5-10 10l0 117c0 5 4 10 10 10l2 0c6 0 10-5 10-10z m-122 429c-91 0-165-74-165-166l30 0c0 75 61 136 135 136 75 0 135-61 135-136l30 0c0 92-74 166-165 166z"/>
<glyph glyph-name="thin-arrow-down" unicode="&#116;" d="M35 409l-34-34 255-272 255 272-34 34-221-235z"/>
<glyph glyph-name="thin-arrow-left" unicode="&#117;" d="M409 477l-34 34-272-255 272-255 34 34-235 221z"/>
<glyph glyph-name="thin-arrow-right" unicode="&#118;" d="M338 256l-235-221 34-34 272 255-272 255-34-34z"/>
<glyph glyph-name="thin-arrow-up" unicode="&#119;" d="M256 338l221-235 34 34-255 272-255-272 34-34z"/>
<glyph glyph-name="thin-close" unicode="&#120;" d="M512 495l-16 16-239-240-240 240-16-16 240-240-240-239 16-16 240 240 239-240 16 16-240 239z"/>
<glyph glyph-name="tick" unicode="&#121;" d="M256 512c-141 0-256-115-256-256 0-141 115-256 256-256 141 0 256 115 256 256 0 141-115 256-256 256z m0-471c-118 0-215 97-215 215 0 118 97 215 215 215 118 0 215-97 215-215 0-118-97-215-215-215z m82 297l-120-120-44 44c-8 8-21 8-29 0-8-8-8-21 0-29l59-59c4-4 9-6 14-6 5 0 11 2 15 6l134 134c8 9 8 21 0 30-8 8-21 8-29 0z"/>
<glyph glyph-name="twitterbird-circle" unicode="&#122;" d="M256 512c-141 0-256-115-256-256 0-141 115-256 256-256 141 0 256 115 256 256 0 141-115 256-256 256z m102-205l0-6c0-67-54-147-150-147-29 0-58 9-83 22 3 0 9 0 13 0 25 0 48 10 67 22-23 0-42 16-51 36 3 0 6 0 9 0 7 0 10 0 13 3-22 3-38 22-38 48 6-3 12-3 22-3-13 6-22 22-22 41 0 10 3 19 6 26 26-32 67-51 109-55 0 4 0 7 0 13 0 29 22 51 54 51 16 0 29-6 39-16 12 4 22 7 35 13-3-13-13-22-23-29 10 0 23 4 32 10-12-13-19-22-32-29z"/>
<glyph glyph-name="user" unicode="&#65;" d="M256 512c-141 0-256-115-256-256 0-141 115-256 256-256 141 0 256 115 256 256 0 141-115 256-256 256z m0-469c-43 0-82 12-116 34l18 86 0 1c3 22 21 38 42 38l13 0c13-7 28-10 43-10 15 0 30 3 43 10l14 0c22 0 40-16 43-38l18-86c-34-22-75-35-118-35z m-64 266c0 35 30 64 64 64 34 0 64-29 64-64 0-36-32-74-64-74-32 0-64 38-64 74z m219-200l-13 62c-5 32-27 59-57 69 12 19 22 46 22 69 0 58-49 107-107 107-58 0-107-49-107-107 0-23 10-51 23-70-29-10-52-36-56-68l-13-63c-37 38-60 90-60 148 0 118 96 213 213 213 118 0 213-95 213-213 0-57-22-108-58-147z"/>
<glyph glyph-name="users" unicode="&#66;" d="M309 399c24-15 40-41 43-70 10-5 21-7 32-7 41 0 75 34 75 75 0 42-34 76-75 76-41 0-74-33-75-74z m-49-155c41 0 75 34 75 75 0 42-34 76-75 76-42 0-75-34-75-76 0-41 33-75 75-75z m32-6l-64 0c-53 0-96-43-96-96l0-79 0-1 5-2c51-16 95-21 131-21 71 0 112 20 114 22l5 2 1 0 0 79c0 53-43 96-96 96z m124 79l-63 0c-1-26-12-49-29-65 47-14 82-58 82-110l0-25c62 3 98 21 100 22l5 2 1 0 0 79c0 53-43 97-96 97z m-288 5c15 0 28 4 40 11 4 25 16 46 35 60 0 2 0 3 0 4 0 42-34 76-75 76-42 0-75-34-75-76 0-41 34-75 75-75z m67-70c-17 16-27 39-28 64-2 0-5 1-7 1l-64 0c-53 0-96-44-96-97l0-79 0-1 6-2c40-12 76-18 108-20l0 24c0 52 34 96 81 110z"/>
<glyph glyph-name="youtube-circle" unicode="&#67;" d="M256 512c-141 0-256-115-256-256 0-141 115-256 256-256 141 0 256 115 256 256 0 141-115 256-256 256z m36-119l19 0 0-75c0-4 3-7 7-7 4 0 7 3 7 7l0 75 18 0 0-96-22 0 0 8c-2-3-4-5-6-7-3-2-4-3-8-3-4 0-6 1-8 3-2 2-4 4-5 6-1 3-1 6-1 8 0 3 0 9 0 17l0 64z m-55-1c3 3 9 4 15 4 5 0 10 0 13-2 4-2 7-5 10-8 1-4 3-7 4-10 1-4 1-9 1-16l0-24c0-9 0-15-1-20-1-4-2-8-4-12-2-3-6-6-10-8-3-2-7-3-12-3-6 0-9 1-13 2-3 2-6 4-8 7-2 2-4 6-4 10-2 6-2 12-2 20l0 26c0 9 1 16 2 21 1 6 4 10 9 13z m-60 39l14-47 13 47 24 0-26-63 0-75-21 0 0 75-27 63z m225-305c0-24-22-45-48-45l-196 0c-26 0-48 20-48 45l0 103c0 25 22 46 48 46l196 0c26 0 48-20 48-46z m-207 98l0 15-64 1 0-16 20 0 0-109 20 0 0 109z m29-16l0-58c0-8 1-13 0-15-2-4-9-9-12 0-1 1 0 6 0 14l0 59-20 0 0-58c0-9 0-15 0-18 1-6 0-12 6-16 9-6 26 1 30 10l0-11 17 0 0 93z m52-4l0 36-20 0 0-124 17 0 2 9c21-20 34-7 34 17l0 48c0 18-14 29-33 14z m17-67c0-3-3-7-9-7-4 0-9 4-9 7l0 54c0 4 4 8 9 8 5 0 9-4 9-8z m64 10c0-1 0-1 0-2l0-8c0-4-4-8-8-8l-3 0c-5 0-8 4-8 8l0 22 35 0 0 13c0 10 0 19-1 24-3 17-27 20-39 11-3-3-7-7-8-12-2-5-3-12-3-21l0-29c0-47 58-40 52 0z m-19 39c0 5 4 9 9 9l1 0c5 0 9-4 9-9l0-11-19 0z m-85 124c4 0 9 4 9 10l0 51c0 6-4 10-9 10-5 0-9-4-9-10l0-51c0-6 3-10 9-10z"/>
<glyph glyph-name="zoom" unicode="&#68;" d="M490 379c-10 26-26 50-47 71-21 20-45 36-70 46-26 10-53 14-79 14-25 0-54-4-80-14-25-10-49-26-70-46-18-18-30-39-40-60-10-20-16-44-19-67-3-24-2-46 5-70 4-23 14-45 27-66l-93-91c-11-11-16-24-16-40 0-16 5-29 16-38 10-12 24-16 38-16 15 0 29 4 39 16l94 94c21-10 42-18 63-21 22-3 43-3 65-1 23 3 43 9 63 19 20 9 38 24 56 40 20 21 36 45 46 70 10 26 14 53 14 79 0 25-3 56-12 81z m-87-123c-5-14-14-27-25-38-12-12-24-21-39-26-14-6-29-8-45-8-16 0-30 3-44 8-15 6-28 14-39 26-11 11-21 24-25 38-7 14-8 29-8 43 0 15 3 29 8 43 6 15 14 28 25 39 11 11 24 21 39 25 14 5 28 8 44 8 16 0 31-3 45-8 15-4 27-14 39-25 11-11 20-24 25-39 5-14 8-28 8-43 0-14-3-29-8-43z"/>
</font>
</defs>
</svg>
